<svg 
 xmlns="http://www.w3.org/2000/svg"
 xmlns:xlink="http://www.w3.org/1999/xlink"
 width="109px" height="74px">
<path fill-rule="evenodd"  fill="rgb(245, 197, 6)"
 d="M81.750,74.000 L23.844,74.000 C10.675,74.000 -0.000,63.458 -0.000,50.454 C-0.000,39.774 7.247,30.858 17.117,27.976 C17.099,27.617 17.031,27.275 17.031,26.909 C17.031,17.620 24.656,10.091 34.062,10.091 C35.946,10.091 37.726,10.465 39.419,11.022 C44.380,4.369 52.304,-0.000 61.312,-0.000 C74.266,-0.000 85.058,8.945 87.827,20.908 C99.941,23.643 109.000,34.300 109.000,47.091 C109.000,61.952 96.800,74.000 81.750,74.000 ZM61.312,47.091 L61.312,26.909 L47.687,26.909 L47.687,47.091 L37.256,47.091 L54.500,64.119 L71.744,47.091 L61.312,47.091 Z"/>
</svg>