<svg width="83" height="83" xmlns="http://www.w3.org/2000/svg">

 <g>
  <title>background</title>
  <rect fill="none" id="canvas_background" height="402" width="582" y="-1" x="-1"/>
 </g>
 <g>
  <title>Layer 1</title>
  <path id="svg_1" d="m83.008,54.996l-11.095,0l-13.082,-13.496l13.082,-13.496l11.095,0l-13.08,13.496l13.08,13.496zm-16.839,0l-11.096,0l-13.081,-13.496l13.081,-13.496l11.096,0l-13.081,13.496l13.081,13.496zm-38.165,-27.069l0,-11.096l13.495,13.081l13.497,-13.081l0,11.096l-13.497,13.081l-13.495,-13.081zm0,-16.84l0,-11.095l13.495,13.08l13.497,-13.08l0,11.095l-13.497,13.081l-13.495,-13.081zm-0.077,43.909l-11.096,0l13.081,-13.496l-13.081,-13.496l11.096,0l13.081,13.496l-13.081,13.496zm-16.84,0l-11.095,0l13.08,-13.496l-13.08,-13.496l11.095,0l13.082,13.496l-13.082,13.496zm43.909,0.077l0,11.095l-13.497,-13.08l-13.495,13.08l0,-11.095l13.495,-13.081l13.497,13.081zm0,16.84l0,11.095l-13.497,-13.081l-13.495,13.081l0,-11.095l13.495,-13.082l13.497,13.082z" fill="rgb(245, 197, 6)" fill-rule="evenodd"/>
  <path id="svg_2" d="m53.478004,28.973l-0.712,-18.781l7.668,-8.018l0.713,18.78l18.794,-0.126l-7.668,8.019l-18.795,0.126zm7.157,12.044l-18.795,0.127l-0.713,-18.782l7.669,-8.018l0.713,18.78l18.794,-0.126l-7.668,8.019zm-38.272,0.855l-8.019,-7.668l18.78,-0.713l-0.125,-18.794l8.019,7.668l0.126,18.795l-18.781,0.712zm-20.189,-19.306l18.78,-0.713l-0.125,-18.795l8.018,7.669l0.127,18.794l-18.781,0.713l-8.019,-7.668zm27.347,31.459l0.713,18.782l-7.668,8.019l-0.714,-18.781l-18.793,0.126l7.668,-8.019l18.794,-0.127zm-7.156,-12.043l18.794,-0.127l0.714,18.782l-7.669,8.019l-0.714,-18.782l-18.793,0.127l7.668,-8.019zm38.272,-0.855l8.019,7.668l-18.781,0.714l0.126,18.794l-8.019,-7.669l-0.127,-18.794l18.782,-0.713zm20.189,19.307l-18.781,0.713l0.126,18.794l-8.019,-7.668l-0.127,-18.795l18.782,-0.713l8.019,7.669z" fill="rgb(245, 197, 6)" opacity="0.502" fill-rule="evenodd"/>
 </g>
</svg>