<svg width="0" height="0" class="hidden">
  <symbol xmlns="http://www.w3.org/2000/svg" viewBox="0 0 13 20" id="right-arrow">
    <path fill="#fff" d="M12.99 9.2l-2.96 2.98h-.01l-6.29 6.34s-1.5 1.2-2.81-.13c-1.3-1.34-.28-2.74-.28-2.74l6.28-6.31L.32 3.3S-.47 1.54.51.53c.98-1 2.77-.21 2.77-.21l6.6 6.04.02-.02 3.09 2.86z"></path>
  </symbol>
  <symbol xmlns="http://www.w3.org/2000/svg" viewBox="0 0 13 20" id="left-arrow">
    <path fill="#fff" d="M.01 9.2l2.96 2.98h.01l6.29 6.34s1.5 1.2 2.81-.13c1.3-1.34.28-2.74.28-2.74L6.08 9.34l6.6-6.04s.79-1.76-.19-2.77c-.98-1-2.77-.21-2.77-.21l-6.6 6.04-.02-.02L.01 9.2z"></path>
  </symbol>
  <symbol xmlns="http://www.w3.org/2000/svg" id="logo">
    <title>background</title>
    <path fill="none" d="M-1-1h582v402H-1z"></path>
    <title>Layer 1</title>
    <path d="M83.008 54.996H71.913L58.831 41.5l13.082-13.496h11.095L69.928 41.5l13.08 13.496zm-16.839 0H55.073L41.992 41.5l13.081-13.496h11.096L53.088 41.5l13.081 13.496zM28.004 27.927V16.831l13.495 13.081 13.497-13.081v11.096L41.499 41.008 28.004 27.927zm0-16.84V-.008l13.495 13.08L54.996-.008v11.095L41.499 24.168 28.004 11.087zm-.077 43.909H16.831L29.912 41.5 16.831 28.004h11.096L41.008 41.5 27.927 54.996zm-16.84 0H-.008L13.072 41.5-.008 28.004h11.095L24.169 41.5 11.087 54.996zm43.909.077v11.095l-13.497-13.08-13.495 13.08V55.073l13.495-13.081 13.497 13.081zm0 16.84v11.095L41.499 69.927 28.004 83.008V71.913l13.495-13.082 13.497 13.082z"
      fill="#F5C506" fill-rule="evenodd"></path>
    <path d="M53.478 28.973l-.712-18.781 7.668-8.018.713 18.78 18.794-.126-7.668 8.019-18.795.126zm7.157 12.044l-18.795.127-.713-18.782 7.669-8.018.713 18.78 18.794-.126-7.668 8.019zm-38.272.855l-8.019-7.668 18.78-.713-.125-18.794 8.019 7.668.126 18.795-18.781.712zM2.174 22.566l18.78-.713-.125-18.795 8.018 7.669.127 18.794-18.781.713-8.019-7.668zm27.347 31.459l.713 18.782-7.668 8.019-.714-18.781-18.793.126 7.668-8.019 18.794-.127zm-7.156-12.043l18.794-.127.714 18.782-7.669 8.019-.714-18.782-18.793.127 7.668-8.019zm38.272-.855l8.019 7.668-18.781.714.126 18.794-8.019-7.669-.127-18.794 18.782-.713zm20.189 19.307l-18.781.713.126 18.794-8.019-7.668-.127-18.795 18.782-.713 8.019 7.669z"
      fill="#F5C506" opacity=".502" fill-rule="evenodd"></path>
  </symbol>
  <symbol xmlns="http://www.w3.org/2000/svg" viewBox="0 0 25 19" id="nav-icon-3">
    <path fill="#b99403" d="M24.74 18.3l-8.28-8.28 6.12-6.12 2.18-2.17c.14.23.24.48.24.77v15c0 .3-.11.56-.26.8zM22.05 3.37l-2.79 2.79-5.35 5.35-.93.94-9.03-9.04-1.5-1.5-.69-.68c.22-.13.46-.23.74-.23h21c.26 0 .5.09.72.21l-.76.75-1.41 1.41zM1.91 2.45L9.47 10l-8.24 8.24c-.13-.22-.23-.46-.23-.74v-15c0-.28.1-.52.23-.74l.68.69zM10 10.53l.32.32.11.11 1.03 1.03 1.5 1.5.06-.06.02.01 1.41-1.4 1.48-1.49 8.26 8.26c-.21.11-.44.19-.69.19h-21c-.28 0-.52-.1-.74-.23L10 10.53z"></path>
  </symbol>
  <symbol xmlns="http://www.w3.org/2000/svg" viewBox="0 0 20 20" id="nav-icon-2">
    <path fill="#b99403" d="M14.96 2.58c-.96.95-.96 2.5 0 3.45.95.96 2.5.96 3.46 0l1.4-1.4c.1.41.18.82.18 1.25 0 2.7-2.19 4.89-4.89 4.89-.44 0-.86-.08-1.27-.19-.01.02-.02.03-.03.05l-8.65 8.63c-.96.96-2.51.96-3.46 0-.96-.95-.96-2.5 0-3.45l8.65-8.63c.01-.02.03-.02.05-.04-.11-.4-.19-.82-.19-1.26 0-2.69 2.19-4.88 4.9-4.88.43 0 .85.07 1.25.18l-1.4 1.4zM3.48 16.87c-.33 0-.61.27-.61.61a.615.615 0 1 0 1.23 0c0-.34-.28-.61-.62-.61z"></path>
  </symbol>
  <symbol xmlns="http://www.w3.org/2000/svg" viewBox="0 0 22 20" id="nav-icon-1">
    <path fill="#b99403" d="M1 20l3.55-5.18h13.96L22 20H1zm10.53-6.05c-2.89 0-5.24-3.18-5.24-6.04V6.18C6.29 3.32 8.64 1 11.53 1s5.23 2.32 5.23 5.18v1.73c0 2.86-2.34 6.04-5.23 6.04z"></path>
  </symbol>
</svg>