<svg xmlns="http://www.w3.org/2000/svg" width="163" height="133" viewBox="0 0 163 133"><g><g><path fill="#bc7d00" d="M162.999 15.313l-15.281 15.313v2.552c0 2.799-.45 5.472-1.101 8.069-.356 21.066-7.052 49-34.556 71.05C57.961 155.668 0 117.402 0 117.402c45.844 0 45.844-15.314 45.844-15.314-10.188 0-30.563-20.417-30.563-20.417 5.094 5.104 15.282 0 15.282 0-25.47-15.314-25.47-30.627-25.47-30.627 5.094 5.104 15.282 0 15.282 0-25.469-20.418-10.188-45.94-10.188-45.94C15.28 30.625 81.5 40.833 81.5 40.833l.842-.422c-.52-2.334-.842-7.294-.842-9.786 0-18.324 14.823-30.627 33.109-30.627 10.065 0 18.97 4.596 25.042 11.699l2.974-1.49L157.905 0l-10.187 20.418z"/></g></g></svg>